<svg data-locale="zh-TW" class="gfx-dark" viewBox="0 0 680 430" xmlns="http://www.w3.org/2000/svg" role="img" aria-label="一個編排器規劃子任務，並將每個子任務委派給一個全新的子代理程式；共享檔案系統在它們之間傳遞工作成果。" preserveAspectRatio="xMidYMid meet" style="width:100%;height:auto;display:block;background:#0d0d0d;border:1px solid #2a2a2a;border-radius:8px;padding:14px;max-width:1040px;margin:1.5rem auto"><defs><marker id="da-a" viewBox="0 0 10 10" refX="8.5" refY="5" markerWidth="7" markerHeight="7" orient="auto"><path d="M0,1 L9,5 L0,9 Z" fill="var(--gfx-sub,#5e5e5e)"/></marker></defs><path d="M 340 100 C 340 138, 130 138, 130 178" fill="none" stroke="var(--gfx-line,#d4d4d4)" stroke-width="2" marker-end="url(#da-a)"/><path d="M 340 100 C 340 138, 340 138, 340 178" fill="none" stroke="var(--gfx-line,#d4d4d4)" stroke-width="2" marker-end="url(#da-a)"/><path d="M 340 100 C 340 138, 550 138, 550 178" fill="none" stroke="var(--gfx-line,#d4d4d4)" stroke-width="2" marker-end="url(#da-a)"/><path d="M 130 234 C 130 290, 240 290, 240 334" fill="none" stroke="var(--gfx-sub,#5e5e5e)" stroke-width="2" stroke-dasharray="5 4" marker-end="url(#da-a)"/><path d="M 340 234 C 340 290, 340 290, 340 334" fill="none" stroke="var(--gfx-sub,#5e5e5e)" stroke-width="2" stroke-dasharray="5 4" marker-end="url(#da-a)"/><path d="M 550 234 C 550 290, 440 290, 440 334" fill="none" stroke="var(--gfx-sub,#5e5e5e)" stroke-width="2" stroke-dasharray="5 4" marker-end="url(#da-a)"/><rect x="252" y="46" width="176" height="54" rx="9" fill="var(--gfx-tint-purple,#eadfff)" stroke="var(--gfx-purple,#6f42c1)" stroke-width="2.4"/><text x="340" y="69" font-family="Arial, 'Helvetica Neue', Helvetica, sans-serif" font-size="13" fill="var(--gfx-purple,#6f42c1)" text-anchor="middle" font-weight="800">編排器</text><text x="340" y="87" font-family="Arial, 'Helvetica Neue', Helvetica, sans-serif" font-size="11" fill="var(--gfx-sub,#5e5e5e)" text-anchor="middle">規劃子任務並進行委派</text><rect x="62" y="178" width="136" height="56" rx="9" fill="var(--gfx-tint-blue,#dfeaf5)" stroke="var(--gfx-blue,#0969da)" stroke-width="2"/><text x="130" y="201" font-family="Arial, 'Helvetica Neue', Helvetica, sans-serif" font-size="12.5" fill="var(--gfx-blue,#0969da)" text-anchor="middle" font-weight="700">子代理程式</text><text x="130" y="219" font-family="Arial, 'Helvetica Neue', Helvetica, sans-serif" font-size="11" fill="var(--gfx-sub,#5e5e5e)" text-anchor="middle">乾淨的上下文</text><rect x="272" y="178" width="136" height="56" rx="9" fill="var(--gfx-tint-green,#e6f3d4)" stroke="var(--gfx-green,#4a7a00)" stroke-width="2"/><text x="340" y="201" font-family="Arial, 'Helvetica Neue', Helvetica, sans-serif" font-size="12.5" fill="var(--gfx-green,#4a7a00)" text-anchor="middle" font-weight="700">子代理程式</text><text x="340" y="219" font-family="Arial, 'Helvetica Neue', Helvetica, sans-serif" font-size="11" fill="var(--gfx-sub,#5e5e5e)" text-anchor="middle">乾淨的上下文</text><rect x="482" y="178" width="136" height="56" rx="9" fill="var(--gfx-tint-teal,#d6f1ee)" stroke="var(--gfx-teal,#0d9488)" stroke-width="2"/><text x="550" y="201" font-family="Arial, 'Helvetica Neue', Helvetica, sans-serif" font-size="12.5" fill="var(--gfx-teal,#0d9488)" text-anchor="middle" font-weight="700">子代理程式</text><text x="550" y="219" font-family="Arial, 'Helvetica Neue', Helvetica, sans-serif" font-size="11" fill="var(--gfx-sub,#5e5e5e)" text-anchor="middle">乾淨的上下文</text><rect x="200" y="334" width="280" height="56" rx="9" fill="var(--gfx-tint-amber,#f7e9cf)" stroke="var(--gfx-amber,#9a6700)" stroke-width="2.4"/><text x="340" y="357" font-family="Arial, 'Helvetica Neue', Helvetica, sans-serif" font-size="12.5" fill="var(--gfx-amber,#9a6700)" text-anchor="middle" font-weight="700">共享虛擬檔案系統</text><text x="340" y="375" font-family="Arial, 'Helvetica Neue', Helvetica, sans-serif" font-size="11" fill="var(--gfx-sub,#5e5e5e)" text-anchor="middle">讀寫 · 在子代理程式之間傳遞工作成果</text></svg>
