<svg data-locale="zh-CN" class="gfx-dark" viewBox="0 0 760 214" xmlns="http://www.w3.org/2000/svg" role="img" aria-label="四值枚举会恰好选择一名专家处理请求。" preserveAspectRatio="xMidYMid meet" style="width:100%;height:auto;display:block;background:#0d0d0d;border:1px solid #2a2a2a;border-radius:8px;padding:14px;max-width:1040px;margin:1.5rem auto"><defs></defs><path d="M 380 84 C 380 122, 110 122, 110 160" fill="none" stroke="var(--gfx-line,#d4d4d4)" stroke-width="1.8"/><path d="M 380 84 C 380 122, 300 122, 300 160" fill="none" stroke="var(--gfx-line,#d4d4d4)" stroke-width="1.8"/><path d="M 380 84 C 380 122, 490 122, 490 160" fill="none" stroke="var(--gfx-line,#d4d4d4)" stroke-width="1.8"/><path d="M 380 84 C 380 122, 680 122, 680 160" fill="none" stroke="var(--gfx-line,#d4d4d4)" stroke-width="1.8"/><rect x="330" y="40" width="100" height="44" rx="8" fill="var(--gfx-tint-purple,#eadfff)" stroke="var(--gfx-purple,#6f42c1)" stroke-width="2"/><text x="380" y="66" font-family="Arial, 'Helvetica Neue', Helvetica, sans-serif" font-size="12.5" fill="var(--gfx-purple,#6f42c1)" text-anchor="middle" font-weight="700">分流</text><rect x="60" y="160" width="100" height="44" rx="8" fill="var(--gfx-tint-blue,#dfeaf5)" stroke="var(--gfx-blue,#0969da)" stroke-width="2"/><text x="110" y="186" font-family="Arial, 'Helvetica Neue', Helvetica, sans-serif" font-size="12.5" fill="var(--gfx-blue,#0969da)" text-anchor="middle" font-weight="700">网络</text><rect x="250" y="160" width="100" height="44" rx="8" fill="var(--gfx-tint-green,#e6f3d4)" stroke="var(--gfx-green,#4a7a00)" stroke-width="2"/><text x="300" y="186" font-family="Arial, 'Helvetica Neue', Helvetica, sans-serif" font-size="12.5" fill="var(--gfx-green,#4a7a00)" text-anchor="middle" font-weight="700">硬件</text><rect x="440" y="160" width="100" height="44" rx="8" fill="var(--gfx-tint-teal,#d6f1ee)" stroke="var(--gfx-teal,#0d9488)" stroke-width="2"/><text x="490" y="186" font-family="Arial, 'Helvetica Neue', Helvetica, sans-serif" font-size="12.5" fill="var(--gfx-teal,#0d9488)" text-anchor="middle" font-weight="700">软件</text><rect x="630" y="160" width="100" height="44" rx="8" fill="var(--gfx-tint-amber,#f7e9cf)" stroke="var(--gfx-amber,#9a6700)" stroke-width="2"/><text x="680" y="186" font-family="Arial, 'Helvetica Neue', Helvetica, sans-serif" font-size="12.5" fill="var(--gfx-amber,#9a6700)" text-anchor="middle" font-weight="700">账号</text></svg>
